Coordinates
version=1
nRows=13
nColumns=40
inDegrees=yes

Units are S.I. units (second, meters, Newtons, ...)
Angles are in degrees.

endheader
time	pelvis_tilt	pelvis_list	pelvis_rotation	pelvis_tx	pelvis_ty	pelvis_tz	hip_flexion_r	hip_adduction_r	hip_rotation_r	knee_angle_r	knee_angle_r_beta	ankle_angle_r	subtalar_angle_r	mtp_angle_r	hip_flexion_l	hip_adduction_l	hip_rotation_l	knee_angle_l	knee_angle_l_beta	ankle_angle_l	subtalar_angle_l	mtp_angle_l	lumbar_extension	lumbar_bending	lumbar_rotation	arm_flex_r	arm_add_r	arm_rot_r	elbow_flex_r	pro_sup_r	wrist_flex_r	wrist_dev_r	arm_flex_l	arm_add_l	arm_rot_l	elbow_flex_l	pro_sup_l	wrist_flex_l	wrist_dev_l
     26.29850000	     -8.02389564	     -3.76842330	    -13.63847234	      1.00414810	      0.92663070	      0.44166938	     27.63337092	     -0.09824702	     -2.67319726	     20.06824084	     20.06824084	      3.71041570	      6.51786459	     -1.96020537	     10.31022450	     -4.19532235	    -11.62478953	     19.17528469	     19.17528469	     17.86179785	    -16.73237571	      5.62867497	    -10.98739355	      7.79099490	      2.27685517	    -10.74579711	    -10.18288043	    -13.93975067	     27.31247066	     46.77514924	      0.00000000	      0.00000000	     34.49892176	    -22.51618222	     -1.92136246	     73.63923287	     47.55012455	      0.00000000	      0.00000000
     26.32200000	     -7.95678636	     -3.54195770	    -14.13933821	      1.00555773	      0.92565454	      0.44660199	     27.05585685	      0.07864824	     -3.25043903	     17.39269997	     17.39269997	      5.09613081	     10.54395669	      6.38832459	      9.47075401	     -4.17910447	    -12.26538068	     18.70799297	     18.70799297	     17.72723854	    -16.69811488	      4.30812958	    -11.03526116	      7.49254185	      2.02784461	    -10.94164040	    -10.13227025	    -13.98553091	     29.10866835	     46.66200059	      0.00000000	      0.00000000	     35.03018990	    -22.32793975	     -4.15173686	     76.30148296	     47.77476850	      0.00000000	      0.00000000
     26.34550000	     -7.93994699	     -3.39440802	    -14.46108783	      1.00735521	      0.92455687	      0.45180860	     26.40440019	      0.47048845	     -3.11819812	     15.18503634	     15.18503634	      4.22414063	     12.23717382	      7.51258794	      8.79643708	     -4.26762481	    -12.62507457	     18.53006166	     18.53006166	     18.06322768	    -16.57936476	      4.09501639	    -10.89476618	      7.30728359	      2.13822206	    -10.61716871	    -10.02895453	    -13.93645327	     29.35169992	     46.64567865	      0.00000000	      0.00000000	     36.10865972	    -22.00340814	     -4.43864302	     77.34121610	     47.82211618	      0.00000000	      0.00000000
     26.36900000	     -7.93127304	     -3.29037514	    -14.64667329	      1.00951894	      0.92361464	      0.45706526	     26.00648017	      0.81380079	     -2.96533696	     14.24535594	     14.24535594	      3.82404639	     13.24251165	      8.14411840	      8.08948575	     -4.39803038	    -12.93174086	     18.30237471	     18.30237471	     18.34176805	    -16.31151869	      3.76797983	    -10.77641686	      7.20001107	      2.13289086	    -10.19864066	     -9.99763089	    -13.96753886	     29.91165327	     46.61922117	      0.00000000	      0.00000000	     36.80313946	    -21.41559235	     -5.16824768	     78.77995156	     47.90443782	      0.00000000	      0.00000000
     26.39250000	     -7.98471833	     -3.28217590	    -14.71628020	      1.01194246	      0.92285310	      0.46261627	     25.74015117	      1.25927100	     -2.66074205	     14.09455511	     14.09455511	      3.48288598	     13.24634276	      7.52976796	      7.41037116	     -4.66079644	    -13.13514412	     18.04302572	     18.04302572	     18.54210113	    -16.05662048	      3.45106837	    -10.57780945	      7.22396558	      2.00191063	     -9.58162855	    -10.03485649	    -14.02555755	     30.60024653	     46.58751929	      0.00000000	      0.00000000	     37.03551157	    -20.73865027	     -6.16164497	     80.39639530	     48.00454161	      0.00000000	      0.00000000
     26.41600000	     -8.02462163	     -3.36330571	    -14.62216126	      1.01454217	      0.92229659	      0.46825506	     25.54640965	      1.69786261	     -2.47240952	     14.63930183	     14.63930183	      3.66959784	     12.93251192	      6.80568711	      6.72135706	     -5.00161602	    -13.11450709	     17.81464139	     17.81464139	     18.75426713	    -15.85878318	      3.39330276	    -10.38114904	      7.34223733	      1.86638222	     -8.80278484	    -10.11450698	    -14.01413037	     30.92050494	     46.57668704	      0.00000000	      0.00000000	     37.48478540	    -20.22992353	     -6.26645707	     81.05553005	     48.02711680	      0.00000000	      0.00000000
     26.43950000	     -8.05989764	     -3.38170295	    -14.52260443	      1.01732095	      0.92190184	      0.47417806	     25.42154833	      2.12654605	     -1.98077737	     15.57380661	     15.57380661	      3.75981878	     11.86045084	      4.74357498	      5.93645093	     -5.29909587	    -13.27541808	     17.41245522	     17.41245522	     18.90980238	    -15.35304030	      3.32322928	    -10.21741924	      7.38078513	      1.83553658	     -7.99032829	    -10.22449577	    -14.02193858	     31.24565883	     46.56371638	      0.00000000	      0.00000000	     37.54924631	    -19.44449767	     -6.64428554	     82.33888311	     48.07758574	      0.00000000	      0.00000000
     26.46300000	     -8.21688343	     -3.62587595	    -14.22717513	      1.02008697	      0.92172154	      0.48017751	     25.09170703	      2.66224371	     -2.18486182	     16.18852491	     16.18852491	      4.24611347	     11.38905676	      4.00360692	      5.34553641	     -5.87558714	    -13.06069602	     17.15518909	     17.15518909	     18.98360989	    -15.12708859	      3.35858387	     -9.89775109	      7.68711294	      1.62872754	     -7.11509737	    -10.41424941	    -14.02654266	     31.54964123	     46.55750239	      0.00000000	      0.00000000	     37.59118126	    -18.83668622	     -6.46982276	     82.64726609	     48.07247569	      0.00000000	      0.00000000
     26.48650000	     -8.18202767	     -3.76390447	    -13.97959929	      1.02291072	      0.92156041	      0.48665863	     24.51708087	      3.28791094	     -1.33676146	     16.58286167	     16.58286167	      2.97183689	      9.01541609	     -2.62964407	      4.50986427	     -6.39519898	    -13.39164613	     16.83548268	     16.83548268	     19.07986749	    -14.21048924	      3.01697247	     -9.88287336	      7.72083541	      1.03048911	     -5.89747128	    -10.56194429	    -14.04008153	     31.49092838	     46.54684804	      0.00000000	      0.00000000	     36.63208751	    -18.72191529	     -7.23173285	     85.09249050	     48.16984407	      0.00000000	      0.00000000
     26.51000000	     -8.23836359	     -3.87152474	    -13.64886556	      1.02543900	      0.92160274	      0.49288506	     24.23224522	      3.62850409	     -1.62783866	     17.40944883	     17.40944883	      3.75599746	      8.61146210	     -3.42515192	      3.74736642	     -6.80679963	    -13.30281408	     16.31791811	     16.31791811	     18.99410607	    -13.78315182	      3.14633111	     -9.70059362	      7.73936544	      0.93506944	     -4.98659219	    -10.77643689	    -13.98406378	     31.64059569	     46.54051341	      0.00000000	      0.00000000	     36.57359248	    -18.17895130	     -6.84839439	     85.05944903	     48.14576381	      0.00000000	      0.00000000
     26.53350000	     -8.32355560	     -4.04287851	    -13.31552414	      1.02770230	      0.92171642	      0.49925400	     23.85298967	      4.07754881	     -1.81109999	     17.92885007	     17.92885007	      4.47535488	      8.05772735	     -4.04445050	      3.05353365	     -7.33805140	    -13.31279415	     15.86966936	     15.86966936	     18.90933419	    -13.24122134	      3.23171843	     -9.53661410	      7.76569127	      0.86865058	     -4.07924476	    -11.03021618	    -13.94348835	     31.75202604	     46.53597209	      0.00000000	      0.00000000	     36.30134654	    -17.68956431	     -6.28923872	     85.14429741	     48.11216357	      0.00000000	      0.00000000
     26.55700000	     -8.49492291	     -4.23174722	    -12.92830453	      1.02961106	      0.92177809	      0.50542397	     23.50391269	      4.51902968	     -2.16328020	     18.20521229	     18.20521229	      5.17584649	      7.75625373	     -4.35850178	      2.60365065	     -7.91823745	    -13.20298512	     15.61710299	     15.61710299	     18.74355716	    -12.91815817	      3.35320477	     -9.32649940	      7.84417068	      0.80186735	     -3.17586023	    -11.31211122	    -13.94809552	     32.02594648	     46.53141722	      0.00000000	      0.00000000	     35.85909218	    -17.10763155	     -5.84887815	     85.08561753	     48.08069196	      0.00000000	      0.00000000
     26.58050000	     -8.53442589	     -4.41724868	    -12.59694956	      1.03141075	      0.92205994	      0.51165280	     23.01332903	      4.96490479	     -2.37639181	     18.38527710	     18.38527710	      5.87129361	      7.47511548	     -4.54899982	      1.90239276	     -8.47033729	    -13.36272311	     15.16227329	     15.16227329	     18.60168041	    -12.19976808	      3.50933114	     -9.24848980	      7.81566963	      0.71491092	     -2.26444091	    -11.62487134	    -13.94752815	     32.22402103	     46.52737033	      0.00000000	      0.00000000	     35.19601740	    -16.87789844	     -5.14705278	     84.88367352	     48.02991469	      0.00000000	      0.00000000
